<mxfile host="app.diagrams.net" modified="2024-06-22T23:40:10.002Z" agent="Mozilla/5.0 (Windows NT 10.0; Win64; x64) AppleWebKit/537.36 (KHTML, like Gecko) Chrome/126.0.0.0 Safari/537.36" etag="OfbiFCUZgvqaDOpOt7nz" version="24.6.2" type="device">
  <diagram name="Seite-1" id="vO9bGe1PAfaSyUVrgkQa">
    <mxGraphModel dx="1509" dy="757" grid="1" gridSize="10" guides="1" tooltips="1" connect="1" arrows="1" fold="1" page="1" pageScale="1" pageWidth="827" pageHeight="1169" math="0" shadow="0">
      <root>
        <mxCell id="0" />
        <mxCell id="1" parent="0" />
        <mxCell id="Xoc5ZM0ziYuFofzknt8c-1" value="&lt;p style=&quot;margin:0px;margin-top:4px;margin-left:10px;text-align:left;&quot;&gt;&lt;b&gt;Technical Context&lt;/b&gt;&lt;/p&gt;" style="html=1;shape=mxgraph.sysml.package;labelX=123.17;align=left;spacingLeft=10;overflow=fill;recursiveResize=0;" vertex="1" parent="1">
          <mxGeometry x="-430" y="20" width="740" height="270" as="geometry" />
        </mxCell>
        <mxCell id="Xoc5ZM0ziYuFofzknt8c-30" value="Webserver" style="strokeColor=inherit;fillColor=inherit;gradientColor=inherit;shape=rect;fontStyle=1;html=1;whiteSpace=wrap;align=center;verticalAlign=top;" vertex="1" parent="Xoc5ZM0ziYuFofzknt8c-1">
          <mxGeometry x="540" y="122.01" width="180" height="96.25" as="geometry" />
        </mxCell>
        <mxCell id="Xoc5ZM0ziYuFofzknt8c-33" value="&lt;p&gt;&amp;lt;&amp;lt;device&amp;gt;&amp;gt;&lt;br&gt;&lt;b&gt;Browser&lt;/b&gt;&lt;/p&gt;" style="shape=rect;html=1;overflow=fill;whiteSpace=wrap;align=center;" vertex="1" parent="Xoc5ZM0ziYuFofzknt8c-1">
          <mxGeometry x="30" y="58.13" width="103" height="50" as="geometry" />
        </mxCell>
        <mxCell id="Xoc5ZM0ziYuFofzknt8c-37" value="&lt;span style=&quot;font-weight: normal;&quot;&gt;poetrydb.org&lt;/span&gt;" style="strokeColor=inherit;fillColor=inherit;gradientColor=inherit;shape=rect;fontStyle=1;html=1;whiteSpace=wrap;align=center;verticalAlign=middle;" vertex="1" parent="Xoc5ZM0ziYuFofzknt8c-1">
          <mxGeometry x="560" y="158.26" width="140" height="50" as="geometry" />
        </mxCell>
        <mxCell id="Xoc5ZM0ziYuFofzknt8c-38" value="" style="shape=component;jettyWidth=8;jettyHeight=4;" vertex="1" parent="Xoc5ZM0ziYuFofzknt8c-1">
          <mxGeometry x="675" y="163.26" width="20" height="20" as="geometry" />
        </mxCell>
        <mxCell id="Xoc5ZM0ziYuFofzknt8c-3" value="" style="strokeColor=inherit;fillColor=inherit;gradientColor=inherit;shape=rect;fontStyle=1;html=1;whiteSpace=wrap;align=center;" vertex="1" parent="Xoc5ZM0ziYuFofzknt8c-1">
          <mxGeometry x="180" y="16.880000000000003" width="340" height="220" as="geometry" />
        </mxCell>
        <mxCell id="Xoc5ZM0ziYuFofzknt8c-35" value="Docker Provider Plattform" style="text;html=1;align=center;verticalAlign=middle;resizable=0;points=[];autosize=1;strokeColor=none;fillColor=none;fontStyle=1" vertex="1" parent="Xoc5ZM0ziYuFofzknt8c-1">
          <mxGeometry x="270" y="16.88" width="160" height="30" as="geometry" />
        </mxCell>
        <mxCell id="Xoc5ZM0ziYuFofzknt8c-12" value="HTTP" style="strokeColor=inherit;fillColor=inherit;gradientColor=inherit;edgeStyle=none;endArrow=open;verticalAlign=top;labelBackgroundColor=none;endSize=12;html=1;rounded=0;entryX=0;entryY=0.5;entryDx=0;entryDy=0;exitX=1;exitY=0.5;exitDx=0;exitDy=0;" edge="1" parent="Xoc5ZM0ziYuFofzknt8c-1" source="Xoc5ZM0ziYuFofzknt8c-33" target="Xoc5ZM0ziYuFofzknt8c-42">
          <mxGeometry relative="1" as="geometry">
            <mxPoint x="142.2" y="82.44" as="sourcePoint" />
            <mxPoint x="289.99999999999994" y="82.55999999999989" as="targetPoint" />
          </mxGeometry>
        </mxCell>
        <mxCell id="Xoc5ZM0ziYuFofzknt8c-42" value="&lt;span style=&quot;font-weight: normal;&quot;&gt;PoeticPulse-ui&lt;/span&gt;" style="strokeColor=inherit;fillColor=inherit;gradientColor=inherit;shape=rect;fontStyle=1;html=1;whiteSpace=wrap;align=center;verticalAlign=middle;" vertex="1" parent="Xoc5ZM0ziYuFofzknt8c-1">
          <mxGeometry x="355" y="58.129999999999995" width="140" height="50" as="geometry" />
        </mxCell>
        <mxCell id="Xoc5ZM0ziYuFofzknt8c-43" value="" style="shape=component;jettyWidth=8;jettyHeight=4;" vertex="1" parent="Xoc5ZM0ziYuFofzknt8c-1">
          <mxGeometry x="470" y="63.129999999999995" width="20" height="20" as="geometry" />
        </mxCell>
        <mxCell id="Xoc5ZM0ziYuFofzknt8c-41" value="" style="shape=component;jettyWidth=8;jettyHeight=4;" vertex="1" parent="Xoc5ZM0ziYuFofzknt8c-1">
          <mxGeometry x="470" y="163.13" width="20" height="20" as="geometry" />
        </mxCell>
        <mxCell id="Xoc5ZM0ziYuFofzknt8c-40" value="&lt;span style=&quot;font-weight: normal;&quot;&gt;PoeticPulse-be&lt;/span&gt;" style="strokeColor=inherit;fillColor=inherit;gradientColor=inherit;shape=rect;fontStyle=1;html=1;whiteSpace=wrap;align=center;verticalAlign=middle;" vertex="1" parent="Xoc5ZM0ziYuFofzknt8c-1">
          <mxGeometry x="355" y="158.13" width="140" height="50" as="geometry" />
        </mxCell>
        <mxCell id="Xoc5ZM0ziYuFofzknt8c-45" value="MongoDB&lt;div&gt;Wire&lt;/div&gt;&lt;div&gt;Protocol&lt;/div&gt;" style="strokeColor=inherit;fillColor=inherit;gradientColor=inherit;edgeStyle=none;endArrow=open;verticalAlign=top;labelBackgroundColor=none;endSize=12;html=1;rounded=0;exitX=0;exitY=0.5;exitDx=0;exitDy=0;entryX=1;entryY=0.5;entryDx=0;entryDy=0;" edge="1" parent="Xoc5ZM0ziYuFofzknt8c-1" source="Xoc5ZM0ziYuFofzknt8c-40" target="Xoc5ZM0ziYuFofzknt8c-44">
          <mxGeometry relative="1" as="geometry">
            <mxPoint x="515" y="228.13" as="sourcePoint" />
            <mxPoint x="589" y="228.47000000000003" as="targetPoint" />
          </mxGeometry>
        </mxCell>
        <mxCell id="Xoc5ZM0ziYuFofzknt8c-44" value="Database" style="shape=datastore;whiteSpace=wrap;html=1;" vertex="1" parent="Xoc5ZM0ziYuFofzknt8c-1">
          <mxGeometry x="205" y="153.13" width="60" height="60" as="geometry" />
        </mxCell>
        <mxCell id="Xoc5ZM0ziYuFofzknt8c-49" value="" style="shape=component;jettyWidth=8;jettyHeight=4;" vertex="1" parent="Xoc5ZM0ziYuFofzknt8c-1">
          <mxGeometry x="470" y="163.13" width="20" height="20" as="geometry" />
        </mxCell>
        <mxCell id="Xoc5ZM0ziYuFofzknt8c-32" value="HTTP" style="strokeColor=inherit;fillColor=inherit;gradientColor=inherit;edgeStyle=none;endArrow=open;verticalAlign=top;labelBackgroundColor=none;endSize=12;html=1;rounded=0;exitX=1;exitY=0.5;exitDx=0;exitDy=0;entryX=0;entryY=0.5;entryDx=0;entryDy=0;" edge="1" parent="Xoc5ZM0ziYuFofzknt8c-1" source="Xoc5ZM0ziYuFofzknt8c-40" target="Xoc5ZM0ziYuFofzknt8c-37">
          <mxGeometry x="0.0461" y="23" relative="1" as="geometry">
            <mxPoint x="497" y="83.13000000000002" as="sourcePoint" />
            <mxPoint x="562" y="83" as="targetPoint" />
            <mxPoint as="offset" />
          </mxGeometry>
        </mxCell>
        <mxCell id="Xoc5ZM0ziYuFofzknt8c-46" value="HTTP" style="strokeColor=inherit;fillColor=inherit;gradientColor=inherit;edgeStyle=none;endArrow=open;verticalAlign=top;labelBackgroundColor=none;endSize=12;html=1;rounded=0;exitX=0.5;exitY=1;exitDx=0;exitDy=0;entryX=0.5;entryY=0;entryDx=0;entryDy=0;" edge="1" parent="Xoc5ZM0ziYuFofzknt8c-1">
          <mxGeometry x="-0.5252" y="-25" relative="1" as="geometry">
            <mxPoint x="424.9999999999998" y="108.13000000000011" as="sourcePoint" />
            <mxPoint x="424.9999999999998" y="158.1300000000001" as="targetPoint" />
            <mxPoint as="offset" />
          </mxGeometry>
        </mxCell>
      </root>
    </mxGraphModel>
  </diagram>
</mxfile>
